ply
format ascii 1.0
element vertex 256
comment vertices
property float x
property float y
property float z
end_header
-1.52737247943878174 2.62127041816711426 -1.12337541580200195
1.14097857475280762 3.79675841331481934 -1.17038750648498535
0.224110379815101624 1.36954450607299805 -1.11813795566558838
0.292546957731246948 4.84956169128417969 -0.313622772693634033
1.78156113624572754 3.7013096809387207 -0.028446294367313385
-0.996622264385223389 3.89646387100219727 -1.13774824142456055
0.109813101589679718 2.73540639877319336 -1.17660748958587646
0.823076307773590088 4.23275613784790039 -0.644440531730651855
1.09704434871673584 2.64798641204833984 -1.09193277359008789
-1.25328946113586426 3.53012681007385254 -0.303999513387680054
-0.571949899196624756 1.92432236671447754 -1.16020786762237549
-0.291718184947967529 3.91362929344177246 -1.07123208045959473
1.08536732196807861 2.64534449577331543 -1.05637097358703613
0.0911341756582260132 3.86406135559082031 -0.884758353233337402
0.49872744083404541 3.98261356353759766 -1.11824774742126465
0.838802576065063477 3.49090576171875 -0.934723138809204102
-0.016483008861541748 2.34969758987426758 -1.17473816871643066
-1.26519143581390381 3.32816600799560547 -1.19881260395050049
-1.91367733478546143 -0.148308038711547852 -1.14669895172119141
0.650403857231140137 3.46442675590515137 -1.1246955394744873
-1.14247739315032959 4.12505149841308594 -0.374202519655227661
-0.656586289405822754 2.52599644660949707 -1.15586614608764648
0.163699686527252197 2.65013980865478516 -1.17153370380401611
0.67512589693069458 2.19020533561706543 -1.11105680465698242
-1.19075846672058105 2.93569159507751465 -1.18970966339111328
-0.532901167869567871 1.91178083419799805 -1.21326935291290283
1.19498276710510254 2.71539735794067383 -1.10252594947814941
0.752649784088134766 3.54528546333312988 -1.10707676410675049
1.66353487968444824 2.84447264671325684 -1.12330913543701172
-2.27375006675720215 3.76718330383300781 -1.1240156888961792
-0.669227719306945801 4.63420391082763672 -0.248488560318946838
0.138116523623466492 2.75784564018249512 -1.16718137264251709
-0.0731193870306015015 1.50760293006896973 -1.38502883911132812
-1.09702301025390625 2.46826267242431641 -1.06928789615631104
-0.0245550833642482758 3.03352141380310059 -1.18359696865081787
0.371525555849075317 4.19642162322998047 -0.992038846015930176
-0.0263435393571853638 3.79356241226196289 -0.68881070613861084
0.826762020587921143 3.77551960945129395 -1.07435894012451172
0.199884608387947083 1.40476012229919434 -1.13222086429595947
-0.117893129587173462 2.67045164108276367 -1.16877937316894531
0.287544667720794678 3.05465793609619141 -1.18172967433929443
-1.99759280681610107 2.61742877960205078 -1.1879117488861084
-0.802199363708496094 3.63448596000671387 -0.907655775547027588
0.432249873876571655 4.74610471725463867 0.0290810316801071167
2.80114054679870605 3.25012516975402832 -1.11054563522338867
1.03905391693115234 2.6635289192199707 -1.08569073677062988
0.508398830890655518 4.61343193054199219 -0.455546051263809204
0.0026356792077422142 2.47926449775695801 -1.16395270824432373
1.38064467906951904 3.34490656852722168 -0.457784652709960938
-0.719464004039764404 2.61484074592590332 -1.15992867946624756
0.460837990045547485 2.50063943862915039 -1.05085408687591553
-0.263182312250137329 2.08044123649597168 -1.21104466915130615
0.67297673225402832 2.20951247215270996 -1.1232447624206543
1.12735116481781006 2.61700296401977539 -1.07329463958740234
-2.16588306427001953 2.46379256248474121 -0.762909412384033203
-0.772582530975341797 2.11957645416259766 -1.31531035900115967
-0.316335976123809814 2.14508342742919922 -1.17597103118896484
-2.34932541847229004 2.46251392364501953 -0.947976112365722656
-0.935286283493041992 3.62719202041625977 -0.563242018222808838
0.197179630398750305 4.7365875244140625 -0.447897195816040039
1.36102330684661865 1.18709492683410645 -0.898862957954406738
0.680297791957855225 2.19320273399353027 -1.12423717975616455
-0.240352794528007507 2.03660321235656738 -1.2099916934967041
-0.797172069549560547 3.42153120040893555 -1.21359455585479736
0.12511146068572998 2.67888808250427246 -1.17844724655151367
-1.23443591594696045 3.14687681198120117 -1.24368453025817871
-0.470213472843170166 2.00668001174926758 -1.20711231231689453
0.0676726475358009338 2.81876277923583984 -1.16931188106536865
1.14672660827636719 2.6167604923248291 -1.06846725940704346
-0.556555092334747314 3.79951190948486328 -0.729692459106445312
1.25172674655914307 4.45898675918579102 -0.996401429176330566
0.719127833843231201 2.96101069450378418 -1.06543612480163574
0.722308158874511719 3.57108473777770996 -1.10403251647949219
1.09681642055511475 2.62923598289489746 -1.07342207431793213
0.79684746265411377 4.17665576934814453 -0.690280616283416748
-1.0983511209487915 2.47014284133911133 -1.11979663372039795
0.255273342132568359 2.2381739616394043 -1.19778788089752197
0.223011121153831482 1.36760437488555908 -1.11394953727722168
1.14344894886016846 2.62994551658630371 -1.0880361795425415
0.771515727043151855 2.98387336730957031 -1.03852713108062744
-1.20856320858001709 3.87882804870605469 -0.860950350761413574
-1.12110412120819092 2.48490428924560547 -1.1022038459777832
-0.53549349308013916 4.44508457183837891 -0.895109415054321289
0.921476185321807861 4.14751243591308594 -0.233716398477554321
0.752547919750213623 3.54896116256713867 -1.10912561416625977
-0.63849174976348877 1.59856820106506348 -1.14135003089904785
0.712396621704101562 3.58988332748413086 -1.0605398416519165
0.0701964795589447021 2.77105879783630371 -1.16727328300476074
0.114963501691818237 2.2066190242767334 -1.17160570621490479
0.66916358470916748 2.18749547004699707 -1.10599637031555176
-0.284034639596939087 3.91332888603210449 -1.08273601531982422
-1.00876772403717041 4.36724996566772461 -0.213707566261291504
1.40583503246307373 3.97240138053894043 -1.04736721515655518
0.748875677585601807 3.5408942699432373 -1.10697853565216064
1.50807452201843262 2.55779457092285156 -1.17856764793395996
-0.217995196580886841 2.10033273696899414 -1.26324796676635742
-0.146562188863754272 2.17964482307434082 -1.18658208847045898
-0.706841826438903809 3.14584732055664062 -1.10965251922607422
-1.13809871673583984 3.09109044075012207 -1.21479249000549316
-0.29103890061378479 3.90602660179138184 -1.1212921142578125
-1.10138964653015137 2.47625589370727539 -1.0600123405456543
0.00104983150959014893 2.61722350120544434 -1.15654361248016357
0.961203098297119141 4.50679874420166016 -0.793619632720947266
0.00265890359878540039 2.82447910308837891 -1.19628751277923584
0.511171817779541016 3.28611612319946289 -1.19981026649475098
0.10831846296787262 2.70253896713256836 -1.18282127380371094
0.825494527816772461 4.37074804306030273 -0.903210699558258057
-1.14189648628234863 4.25962114334106445 -0.396352618932723999
-1.70289373397827148 3.57063460350036621 -1.08360958099365234
0.20684407651424408 3.36083841323852539 -1.05741751194000244
-0.546084284782409668 4.70141935348510742 -0.186405152082443237
1.76340603828430176 3.10979962348937988 -0.746646761894226074
0.555395901203155518 3.67841911315917969 -0.796835005283355713
-0.64522552490234375 3.24037718772888184 -1.28196096420288086
2.12440299987792969 3.29635381698608398 -1.15347683429718018
0.67302858829498291 2.19011259078979492 -1.11267936229705811
-0.284364402294158936 3.90489959716796875 -1.09969794750213623
-0.318296045064926147 2.16572880744934082 -1.18281757831573486
0.195505097508430481 2.80028510093688965 -1.17548060417175293
0.227623611688613892 1.3666536808013916 -1.13890981674194336
-0.170347139239311218 2.5403289794921875 -1.13067054748535156
-1.09901785850524902 2.46635913848876953 -1.11994373798370361
-1.90073776245117188 4.13502073287963867 -0.837492644786834717
0.538655281066894531 3.94624638557434082 -1.03882718086242676
-0.808344244956970215 2.85016298294067383 -0.703095197677612305
0.189598441123962402 4.53713417053222656 -0.38149714469909668
0.0468862876296043396 2.57127070426940918 -1.16386759281158447
0.976170659065246582 2.56008195877075195 -1.11129438877105713
0.754070043563842773 3.50218582153320312 -1.11020302772521973
-1.11771786212921143 2.80304908752441406 -1.19367051124572754
-2.52446651458740234 2.08207941055297852 -0.635852813720703125
0.412104010581970215 4.45074367523193359 -0.525481820106506348
-0.285437345504760742 2.33160209655761719 -1.15883338451385498
-0.328533053398132324 1.97960114479064941 -1.19994628429412842
-1.43344616889953613 2.92439365386962891 -0.814633190631866455
0.636533260345458984 4.34302425384521484 -0.468854755163192749
0.882804274559020996 4.16200065612792969 -0.451874077320098877
-1.13864433765411377 2.94322490692138672 -1.20725727081298828
1.87194299697875977 3.67689347267150879 -0.139872655272483826
1.13741040229797363 2.62438488006591797 -1.08247733116149902
-0.0850474834442138672 2.3698430061340332 -1.15697658061981201
0.848575949668884277 4.14381980895996094 -1.03630185127258301
-0.316395580768585205 3.88875961303710938 -1.04219365119934082
-0.0323444157838821411 2.43452095985412598 -1.16067278385162354
-0.107272438704967499 4.17018318176269531 -1.10071671009063721
0.0300251096487045288 3.1895592212677002 -0.819024562835693359
0.540335416793823242 4.12326478958129883 -1.02595508098602295
-1.01244127750396729 2.6436614990234375 -0.50181502103805542
-0.548274457454681396 3.51121926307678223 -0.768278062343597412
0.609272003173828125 3.99088573455810547 -0.503572225570678711
0.625936806201934814 2.36799168586730957 -1.1233069896697998
0.677937328815460205 2.18906950950622559 -1.1166003942489624
-2.2128293514251709 2.34157848358154297 -0.967181682586669922
-0.660977840423583984 2.2576591968536377 -1.13743436336517334
-2.22602677345275879 1.4954836368560791 -1.00135362148284912
0.646668314933776855 2.21848630905151367 -1.11093783378601074
-1.03289699554443359 3.55742979049682617 -1.05861473083496094
0.673256218433380127 2.23642373085021973 -1.1141517162322998
0.261864244937896729 2.6526336669921875 -1.36618590354919434
-1.156319260597229 3.38227677345275879 -1.19220530986785889
-1.22227120399475098 3.87000226974487305 -1.13164520263671875
-2.60594773292541504 -0.266309022903442383 -1.13422834873199463
1.46106123924255371 2.2837986946105957 -1.10716009140014648
-2.01581287384033203 4.11171245574951172 -0.925385832786560059
0.0396804735064506531 2.98161888122558594 -1.20531940460205078
0.219254687428474426 1.38589513301849365 -1.14142179489135742
0.76631087064743042 3.54013180732727051 -1.13109028339385986
-1.01279902458190918 3.99540853500366211 -0.409785956144332886
0.136216416954994202 2.58446073532104492 -1.17440927028656006
0.757590055465698242 3.54500365257263184 -1.12247037887573242
-0.934654116630554199 2.95918655395507812 -1.23717951774597168
-1.24429893493652344 2.11228656768798828 -1.11052203178405762
0.677642285823822021 2.18977141380310059 -1.11111176013946533
0.672366142272949219 2.21328830718994141 -1.10973215103149414
0.751149535179138184 2.92902541160583496 -1.08755683898925781
-0.357220053672790527 2.12882423400878906 -1.20770204067230225
-0.255381643772125244 2.47170305252075195 -0.991221845149993896
0.39638790488243103 4.25528430938720703 -0.824652493000030518
-0.110244885087013245 3.07265806198120117 -1.17736530303955078
-0.335902690887451172 2.00119447708129883 -1.22280824184417725
-0.658744096755981445 2.69567012786865234 -1.34776616096496582
0.38590887188911438 3.21147966384887695 -0.84498894214630127
0.704728841781616211 2.17560291290283203 -1.1219170093536377
1.75846052169799805 3.52593207359313965 -0.846165120601654053
-0.866932332515716553 4.29394245147705078 -0.550362825393676758
0.118461042642593384 2.71358180046081543 -1.17810773849487305
-1.11524343490600586 3.81996011734008789 -0.386573880910873413
-0.64352881908416748 3.01820278167724609 -1.17404580116271973
0.677737891674041748 2.18562769889831543 -1.09662699699401855
1.09678840637207031 2.64629364013671875 -1.06664526462554932
0.601390421390533447 3.62254881858825684 -1.11012899875640869
-1.3831864595413208 3.42010831832885742 -1.09966063499450684
-0.20904126763343811 3.87762165069580078 -1.10444259643554688
0.648693323135375977 2.98183751106262207 -1.0481257438659668
1.11062252521514893 2.62382340431213379 -1.08205187320709229
-0.397269636392593384 1.99399793148040771 -1.20884406566619873
0.102231919765472412 1.70738506317138672 -1.26600849628448486
-0.688366293907165527 2.41167593002319336 -1.22741055488586426
0.236577361822128296 2.95637893676757812 -1.1902618408203125
1.11191987991333008 2.62571310997009277 -1.069541335105896
-1.34429717063903809 2.45319318771362305 -1.19910585880279541
0.334047913551330566 1.01079034805297852 -1.36906599998474121
-1.17247688770294189 3.45247077941894531 -0.398103952407836914
0.220995858311653137 1.35712218284606934 -1.13815689086914062
0.794578671455383301 4.16697359085083008 -0.637404978275299072
2.48027515411376953 1.90742611885070801 -0.847706079483032227
0.319648623466491699 3.81450772285461426 -1.03144288063049316
-1.02659845352172852 3.5835869312286377 -1.15693700313568115
-0.496785223484039307 1.95306909084320068 -1.21793472766876221
0.195275574922561646 2.84725594520568848 -1.16863083839416504
1.01661622524261475 3.42045807838439941 -1.10532689094543457
0.386110603809356689 3.85649991035461426 -1.19405162334442139
0.679577946662902832 2.18364787101745605 -1.10266005992889404
0.198347553610801697 1.45525157451629639 -1.13211536407470703
0.727217197418212891 3.57000613212585449 -1.11013233661651611
-1.21769404411315918 3.64621353149414062 -1.17703986167907715
1.09981560707092285 4.59754467010498047 -0.89460909366607666
-1.58756566047668457 3.29666018486022949 -1.124076247215271
-0.750032961368560791 2.59501004219055176 -1.17041409015655518
0.080647006630897522 2.51519012451171875 -1.16700434684753418
-1.83899950981140137 4.34343338012695312 -0.897796988487243652
-0.95734328031539917 3.05567121505737305 -0.886789441108703613
1.60181427001953125 3.53204727172851562 -0.865946292877197266
-0.82625812292098999 3.03682541847229004 -0.948903560638427734
1.50517177581787109 4.1237483024597168 0.000455558300018310547
1.09503471851348877 2.63931488990783691 -1.08379673957824707
0.256070375442504883 3.63413238525390625 -0.743014991283416748
0.242940574884414673 3.01430654525756836 -1.15604722499847412
-0.289531707763671875 3.91078686714172363 -1.09915781021118164
-0.297955513000488281 2.37582969665527344 -1.16466414928436279
0.588057398796081543 3.96116113662719727 -0.949210882186889648
-1.0786360502243042 2.30096602439880371 -1.13504528999328613
0.751935005187988281 3.5457603931427002 -1.10580146312713623
0.226852104067802429 1.38416552543640137 -1.11480605602264404
0.649545073509216309 3.50093626976013184 -1.10113787651062012
-0.105510294437408447 2.28853654861450195 -1.19006860256195068
0.651321649551391602 3.96517801284790039 -0.599191069602966309
-0.279274016618728638 3.90764713287353516 -1.11559844017028809
-0.231622308492660522 2.25432467460632324 -1.25347566604614258
-0.296236276626586914 2.0054929256439209 -1.20845985412597656
0.336921811103820801 2.73443222045898438 -1.12633371353149414
-0.0459502488374710083 3.36843514442443848 -0.865786075592041016
0.391811728477478027 2.63563632965087891 -1.0510023832321167
0.00465115346014499664 2.48236203193664551 -1.16919851303100586
-0.0189393758773803711 2.75871181488037109 -1.17807531356811523
-0.904528379440307617 3.93750452995300293 -0.678935766220092773
-0.52445673942565918 1.65656018257141113 -1.37037956714630127
0.868689775466918945 4.2586979866027832 -0.598332643508911133
1.94771862030029297 2.00796175003051758 -1.13409638404846191
-1.09086155891418457 4.28221225738525391 -0.474048227071762085
0.083599090576171875 2.79093432426452637 -1.1853632926940918
1.08755695819854736 2.88752126693725586 -0.946923613548278809
-1.99950873851776123 4.08353042602539062 -0.925178289413452148
-1.09838557243347168 2.46713852882385254 -1.08785462379455566
0.0447057783603668213 3.57046937942504883 -1.19343507289886475
1.78723764419555664 4.20836734771728516 -1.01469910144805908
