ply
format ascii 1.0
element vertex 112
comment vertices
property float x
property float y
property float z
end_header
0.224110379815101624 1.36954450607299805 -1.11813795566558838
0.109813101589679718 2.73540639877319336 -1.17660748958587646
1.09704434871673584 2.64798641204833984 -1.09193277359008789
-0.571949899196624756 1.92432236671447754 -1.16020786762237549
-0.291718184947967529 3.91362929344177246 -1.07123208045959473
1.08536732196807861 2.64534449577331543 -1.05637097358703613
-0.016483008861541748 2.34969758987426758 -1.17473816871643066
0.650403857231140137 3.46442675590515137 -1.1246955394744873
-0.656586289405822754 2.52599644660949707 -1.15586614608764648
0.163699686527252197 2.65013980865478516 -1.17153370380401611
0.67512589693069458 2.19020533561706543 -1.11105680465698242
-0.532901167869567871 1.91178083419799805 -1.21326935291290283
1.19498276710510254 2.71539735794067383 -1.10252594947814941
0.752649784088134766 3.54528546333312988 -1.10707676410675049
0.138116523623466492 2.75784564018249512 -1.16718137264251709
-1.09702301025390625 2.46826267242431641 -1.06928789615631104
-0.0245550833642482758 3.03352141380310059 -1.18359696865081787
0.199884608387947083 1.40476012229919434 -1.13222086429595947
-0.117893129587173462 2.67045164108276367 -1.16877937316894531
0.287544667720794678 3.05465793609619141 -1.18172967433929443
1.03905391693115234 2.6635289192199707 -1.08569073677062988
0.0026356792077422142 2.47926449775695801 -1.16395270824432373
-0.263182312250137329 2.08044123649597168 -1.21104466915130615
0.67297673225402832 2.20951247215270996 -1.1232447624206543
1.12735116481781006 2.61700296401977539 -1.07329463958740234
-0.316335976123809814 2.14508342742919922 -1.17597103118896484
0.680297791957855225 2.19320273399353027 -1.12423717975616455
-0.240352794528007507 2.03660321235656738 -1.2099916934967041
0.12511146068572998 2.67888808250427246 -1.17844724655151367
-0.470213472843170166 2.00668001174926758 -1.20711231231689453
0.0676726475358009338 2.81876277923583984 -1.16931188106536865
1.14672660827636719 2.6167604923248291 -1.06846725940704346
0.722308158874511719 3.57108473777770996 -1.10403251647949219
1.09681642055511475 2.62923598289489746 -1.07342207431793213
-1.0983511209487915 2.47014284133911133 -1.11979663372039795
0.223011121153831482 1.36760437488555908 -1.11394953727722168
1.14344894886016846 2.62994551658630371 -1.0880361795425415
-1.12110412120819092 2.48490428924560547 -1.1022038459777832
0.752547919750213623 3.54896116256713867 -1.10912561416625977
0.0701964795589447021 2.77105879783630371 -1.16727328300476074
0.66916358470916748 2.18749547004699707 -1.10599637031555176
-0.284034639596939087 3.91332888603210449 -1.08273601531982422
0.748875677585601807 3.5408942699432373 -1.10697853565216064
-0.146562188863754272 2.17964482307434082 -1.18658208847045898
-0.29103890061378479 3.90602660179138184 -1.1212921142578125
-1.10138964653015137 2.47625589370727539 -1.0600123405456543
0.00104983150959014893 2.61722350120544434 -1.15654361248016357
0.00265890359878540039 2.82447910308837891 -1.19628751277923584
0.10831846296787262 2.70253896713256836 -1.18282127380371094
0.67302858829498291 2.19011259078979492 -1.11267936229705811
-0.284364402294158936 3.90489959716796875 -1.09969794750213623
-0.318296045064926147 2.16572880744934082 -1.18281757831573486
0.195505097508430481 2.80028510093688965 -1.17548060417175293
0.227623611688613892 1.3666536808013916 -1.13890981674194336
-0.170347139239311218 2.5403289794921875 -1.13067054748535156
-1.09901785850524902 2.46635913848876953 -1.11994373798370361
0.0468862876296043396 2.57127070426940918 -1.16386759281158447
0.976170659065246582 2.56008195877075195 -1.11129438877105713
0.754070043563842773 3.50218582153320312 -1.11020302772521973
-0.285437345504760742 2.33160209655761719 -1.15883338451385498
-0.328533053398132324 1.97960114479064941 -1.19994628429412842
1.13741040229797363 2.62438488006591797 -1.08247733116149902
-0.0850474834442138672 2.3698430061340332 -1.15697658061981201
-0.316395580768585205 3.88875961303710938 -1.04219365119934082
-0.0323444157838821411 2.43452095985412598 -1.16067278385162354
0.625936806201934814 2.36799168586730957 -1.1233069896697998
0.677937328815460205 2.18906950950622559 -1.1166003942489624
-0.660977840423583984 2.2576591968536377 -1.13743436336517334
0.646668314933776855 2.21848630905151367 -1.11093783378601074
0.673256218433380127 2.23642373085021973 -1.1141517162322998
0.0396804735064506531 2.98161888122558594 -1.20531940460205078
0.219254687428474426 1.38589513301849365 -1.14142179489135742
0.76631087064743042 3.54013180732727051 -1.13109028339385986
0.136216416954994202 2.58446073532104492 -1.17440927028656006
0.757590055465698242 3.54500365257263184 -1.12247037887573242
0.677642285823822021 2.18977141380310059 -1.11111176013946533
0.672366142272949219 2.21328830718994141 -1.10973215103149414
-0.357220053672790527 2.12882423400878906 -1.20770204067230225
-0.110244885087013245 3.07265806198120117 -1.17736530303955078
-0.335902690887451172 2.00119447708129883 -1.22280824184417725
0.704728841781616211 2.17560291290283203 -1.1219170093536377
0.118461042642593384 2.71358180046081543 -1.17810773849487305
0.677737891674041748 2.18562769889831543 -1.09662699699401855
1.09678840637207031 2.64629364013671875 -1.06664526462554932
-0.20904126763343811 3.87762165069580078 -1.10444259643554688
1.11062252521514893 2.62382340431213379 -1.08205187320709229
-0.397269636392593384 1.99399793148040771 -1.20884406566619873
0.236577361822128296 2.95637893676757812 -1.1902618408203125
1.11191987991333008 2.62571310997009277 -1.069541335105896
0.220995858311653137 1.35712218284606934 -1.13815689086914062
-0.496785223484039307 1.95306909084320068 -1.21793472766876221
0.195275574922561646 2.84725594520568848 -1.16863083839416504
0.679577946662902832 2.18364787101745605 -1.10266005992889404
0.198347553610801697 1.45525157451629639 -1.13211536407470703
0.727217197418212891 3.57000613212585449 -1.11013233661651611
0.080647006630897522 2.51519012451171875 -1.16700434684753418
1.09503471851348877 2.63931488990783691 -1.08379673957824707
0.242940574884414673 3.01430654525756836 -1.15604722499847412
-0.289531707763671875 3.91078686714172363 -1.09915781021118164
-0.297955513000488281 2.37582969665527344 -1.16466414928436279
-1.0786360502243042 2.30096602439880371 -1.13504528999328613
0.751935005187988281 3.5457603931427002 -1.10580146312713623
0.226852104067802429 1.38416552543640137 -1.11480605602264404
0.649545073509216309 3.50093626976013184 -1.10113787651062012
-0.105510294437408447 2.28853654861450195 -1.19006860256195068
-0.279274016618728638 3.90764713287353516 -1.11559844017028809
-0.296236276626586914 2.0054929256439209 -1.20845985412597656
0.336921811103820801 2.73443222045898438 -1.12633371353149414
0.00465115346014499664 2.48236203193664551 -1.16919851303100586
-0.0189393758773803711 2.75871181488037109 -1.17807531356811523
0.083599090576171875 2.79093432426452637 -1.1853632926940918
-1.09838557243347168 2.46713852882385254 -1.08785462379455566
