ply
format ascii 1.0
element vertex 256
comment vertices
property float x
property float y
property float z
end_header
-1.51918816566467285 2.81397700309753418 -1.01593351364135742
1.20961225032806396 3.73442792892456055 -1.18287861347198486
0.231554508209228516 1.39984214305877686 -1.08283019065856934
-0.0447954460978507996 4.97033834457397461 -0.363417565822601318
1.34026932716369629 4.11616706848144531 -0.14688187837600708
-0.82065051794052124 4.2187042236328125 -1.10493087768554688
0.0887214541435241699 2.77365946769714355 -1.18303775787353516
0.600501179695129395 4.64071273803710938 -0.564059138298034668
0.999776601791381836 2.71976518630981445 -1.15172755718231201
-1.22902905941009521 4.08163976669311523 -0.34252360463142395
-0.521391570568084717 2.00802874565124512 -1.16370546817779541
-0.365428805351257324 3.92534327507019043 -1.06724345684051514
1.06526422500610352 2.69814729690551758 -1.04305613040924072
0.0313677340745925903 4.5853571891784668 -0.686313867568969727
0.588546454906463623 4.15113162994384766 -1.00130343437194824
0.594399750232696533 4.14947223663330078 -0.639941096305847168
-0.0257475003600120544 2.35184669494628906 -1.21491348743438721
-1.20615065097808838 3.69745326042175293 -1.11130571365356445
-1.9627605676651001 2.73521995544433594 -0.521965265274047852
0.569835543632507324 3.28338456153869629 -1.23810768127441406
-1.19186806678771973 4.6006922721862793 -0.413390994071960449
-0.620924234390258789 2.5036931037902832 -1.1535414457321167
0.226927772164344788 2.64317584037780762 -1.2099151611328125
0.690449357032775879 2.20138883590698242 -1.10596954822540283
-1.19656705856323242 3.53546357154846191 -0.981491446495056152
-0.450442731380462646 1.99016046524047852 -1.23309540748596191
1.33369076251983643 2.89179801940917969 -1.17406225204467773
0.7169455885887146 3.59288501739501953 -1.12330424785614014
1.09380555152893066 3.8050227165222168 -0.741041421890258789
-1.35269761085510254 4.20415782928466797 -0.99287569522857666
-0.879591226577758789 4.92008447647094727 -0.337936729192733765
0.147843837738037109 2.80306291580200195 -1.15674126148223877
0.119320720434188843 3.89736747741699219 -0.908292531967163086
-1.05635714530944824 2.44796466827392578 -1.04024100303649902
-0.031270049512386322 3.11002922058105469 -1.1496967077255249
0.42773902416229248 4.29497098922729492 -0.847101449966430664
-0.210397064685821533 4.62662410736083984 -0.437779009342193604
0.951230347156524658 3.94719266891479492 -1.02109956741333008
0.173873156309127808 1.47813987731933594 -1.14548110961914062
-0.18719637393951416 2.68543577194213867 -1.19090020656585693
0.326893091201782227 3.08093142509460449 -1.16255605220794678
-1.72398972511291504 2.74539422988891602 -1.19793641567230225
-0.839229166507720947 4.37624168395996094 -0.763630390167236328
0.227462559938430786 4.96357440948486328 -0.201050788164138794
1.68150413036346436 3.98101615905761719 -0.953060626983642578
0.844744443893432617 2.5995640754699707 -1.19187641143798828
0.528925895690917969 4.7781829833984375 -0.486963987350463867
0.00349879264831542969 2.49558377265930176 -1.14570045471191406
0.889009654521942139 4.1797032356262207 -0.231752872467041016
-0.795719027519226074 4.14441204071044922 -0.817806065082550049
0.495290875434875488 3.8023216724395752 -0.775330305099487305
-0.250311791896820068 2.08262014389038086 -1.21813416481018066
0.653999805450439453 2.24005556106567383 -1.16270804405212402
1.16084706783294678 2.63826799392700195 -1.05616891384124756
-1.70172035694122314 3.67259073257446289 -0.54344487190246582
-1.16568732261657715 3.11060953140258789 -1.2335047721862793
-0.299639433622360229 2.16526603698730469 -1.14858615398406982
-1.74018561840057373 3.64315462112426758 -0.670284509658813477
-0.876744627952575684 4.39825010299682617 -0.437712550163269043
0.17584681510925293 4.74976348876953125 -0.519689261913299561
1.20533442497253418 3.52768278121948242 -0.461025834083557129
0.709406733512878418 2.19479918479919434 -1.12245678901672363
-0.219010904431343079 2.03670358657836914 -1.22596478462219238
-1.02360212802886963 3.70986437797546387 -1.15657401084899902
0.147853553295135498 2.70511436462402344 -1.20795357227325439
-1.22058403491973877 3.47894430160522461 -1.2463843822479248
-0.439307838678359985 2.04868650436401367 -1.21808934211730957
0.0389744043350219727 2.89059805870056152 -1.15279746055603027
1.21025502681732178 2.64557456970214844 -1.05947697162628174
-0.715445876121520996 4.63349151611328125 -0.558886110782623291
1.12639272212982178 4.33988857269287109 -0.961166322231292725
0.47271689772605896 4.03344297409057617 -0.660369873046875
0.958655953407287598 3.50721549987792969 -1.10599684715270996
1.08807003498077393 2.62492585182189941 -1.07026386260986328
0.604540586471557617 4.61758756637573242 -0.625126183032989502
-1.09107661247253418 2.4948420524597168 -1.14794349670410156
0.3026447594165802 3.91569757461547852 -0.784557700157165527
0.226669594645500183 1.39172732830047607 -1.07082343101501465
1.19894528388977051 2.73042535781860352 -1.13757503032684326
0.48976588249206543 4.04300355911254883 -0.632689297199249268
-1.15228462219238281 4.48022127151489258 -0.678434312343597412
-1.03760051727294922 2.41881060600280762 -1.10240864753723145
-0.483571618795394897 4.78630733489990234 -0.653031468391418457
0.557831764221191406 4.62772655487060547 -0.15968051552772522
0.746377348899841309 3.53811860084533691 -1.10647940635681152
-1.21190488338470459 3.71082472801208496 -0.640024960041046143
0.842593550682067871 3.86710071563720703 -0.935208678245544434
0.0229052305221557617 2.81912136077880859 -1.17346978187561035
0.165667712688446045 2.18757128715515137 -1.17059600353240967
0.67897188663482666 2.19561123847961426 -1.07287144660949707
-0.315190494060516357 3.91139364242553711 -1.09417343139648438
-1.08167576789855957 4.75364828109741211 -0.277193427085876465
1.12529909610748291 4.14190006256103516 -0.97052764892578125
0.784467399120330811 3.58124470710754395 -1.07666504383087158
0.826805353164672852 3.91338229179382324 -0.637451529502868652
0.199832171201705933 4.19554805755615234 -0.727460741996765137
-0.108134478330612183 2.15224003791809082 -1.20283007621765137
-0.943789660930633545 4.16507148742675781 -0.820858597755432129
-1.23530316352844238 3.31232118606567383 -1.09887421131134033
-0.326160132884979248 3.86678123474121094 -1.17058777809143066
-1.08139419555664062 2.52664804458618164 -1.02967488765716553
-0.0765041857957839966 2.63997054100036621 -1.1868511438369751
0.723689258098602295 4.61596918106079102 -0.641110420227050781
-0.0694531500339508057 2.89726448059082031 -1.19598603248596191
0.469533026218414307 4.03341865539550781 -0.970483064651489258
0.101406276226043701 2.73336410522460938 -1.19465601444244385
0.682252585887908936 4.46605491638183594 -0.736678600311279297
-1.16173684597015381 4.65935277938842773 -0.475563675165176392
-1.30579602718353271 4.01183795928955078 -0.899658143520355225
0.311330139636993408 4.24426603317260742 -0.73788607120513916
-0.55839771032333374 4.90332365036010742 -0.311265558004379272
1.09058821201324463 3.97159481048583984 -0.460471808910369873
0.390504688024520874 4.49235773086547852 -0.600594222545623779
-0.0644031167030334473 4.42209625244140625 -0.828133821487426758
1.51127219200134277 4.00994157791137695 -1.03251063823699951
0.669006884098052979 2.22837495803833008 -1.10918533802032471
-0.313477009534835815 3.90137743949890137 -1.1237713098526001
-0.306845605373382568 2.19474172592163086 -1.15979361534118652
0.17178797721862793 2.86734175682067871 -1.18090319633483887
0.233458876609802246 1.39842987060546875 -1.122947096824646
-0.241579413414001465 2.56230831146240234 -1.1375805139541626
-1.10585677623748779 2.42641758918762207 -1.13794171810150146
-1.33751201629638672 4.65317916870117188 -0.645022988319396973
0.615442991256713867 4.11104774475097656 -0.893049836158752441
-0.991918325424194336 4.24246788024902344 -0.50333714485168457
-0.0234452076256275177 4.70083284378051758 -0.314855307340621948
0.00911206752061843872 2.56197333335876465 -1.19006860256195068
0.824299931526184082 2.51050829887390137 -1.15567696094512939
0.674703359603881836 3.25553154945373535 -1.15817391872406006
-1.26316523551940918 3.18121194839477539 -1.07639181613922119
-1.86251509189605713 3.32384490966796875 -0.451911717653274536
0.382710576057434082 4.7768402099609375 -0.523623943328857422
-0.279808849096298218 2.36367249488830566 -1.15070092678070068
-0.280440598726272583 1.98580193519592285 -1.21218347549438477
-1.21061146259307861 4.23998403549194336 -0.598175406455993652
0.524412214756011963 4.66631031036376953 -0.430096358060836792
0.617769122123718262 4.58445119857788086 -0.382403135299682617
-1.1817394495010376 3.64215445518493652 -1.03497922420501709
1.34208095073699951 4.12685680389404297 -0.290040016174316406
1.18214142322540283 2.6450197696685791 -1.09799468517303467
-0.104489803314208984 2.38290524482727051 -1.16563427448272705
0.857500135898590088 4.22209835052490234 -0.914015412330627441
-0.476759225130081177 4.10015869140625 -0.911207735538482666
-0.0334270596504211426 2.44615054130554199 -1.14655601978302002
-0.0591615214943885803 4.73767566680908203 -0.789627671241760254
0.182924091815948486 4.44549131393432617 -0.465166330337524414
0.494491934776306152 4.29179573059082031 -0.909152686595916748
-1.42156577110290527 3.75081014633178711 -0.331853806972503662
-0.751579463481903076 4.51111030578613281 -0.530966341495513916
0.477353394031524658 4.62152814865112305 -0.386046469211578369
0.566893696784973145 2.50916147232055664 -1.17747831344604492
0.68183588981628418 2.21379947662353516 -1.12134897708892822
-1.72177541255950928 2.93399500846862793 -0.799843668937683105
-0.629812002182006836 2.25655937194824219 -1.12366807460784912
-1.88864517211914062 3.07727909088134766 -0.548018515110015869
0.469876676797866821 2.39881181716918945 -1.16779637336730957
-1.13705277442932129 3.77724647521972656 -0.852457642555236816
0.548048615455627441 2.45701861381530762 -1.15740823745727539
0.0754205584526062012 4.28703832626342773 -0.802171409130096436
-1.16861867904663086 3.58446478843688965 -1.16168737411499023
-1.08411610126495361 3.99698853492736816 -1.05296790599822998
-2.12938690185546875 2.60860610008239746 -0.616366207599639893
0.833265721797943115 3.97513914108276367 -0.479764699935913086
-1.32139313220977783 4.32758045196533203 -0.781387448310852051
0.0230183303356170654 3.06147027015686035 -1.19144463539123535
0.225902020931243896 1.44303786754608154 -1.14121842384338379
0.697242498397827148 3.54540848731994629 -1.13688504695892334
-1.00669586658477783 4.52182149887084961 -0.418132245540618896
0.166659250855445862 2.57690072059631348 -1.20625877380371094
0.652358353137969971 3.7709352970123291 -1.04404962062835693
-1.15279662609100342 3.30282044410705566 -1.17563724517822266
-1.37517702579498291 3.58203887939453125 -0.684316515922546387
0.698003411293029785 2.20872116088867188 -1.10815811157226562
0.506867587566375732 2.33040285110473633 -1.15733897686004639
0.839825809001922607 2.91254019737243652 -1.12439465522766113
-0.376773923635482788 2.1548614501953125 -1.21510970592498779
-0.839135944843292236 4.34495258331298828 -0.598928272724151611
0.293381989002227783 4.49885797500610352 -0.657049655914306641
-0.0908575728535652161 3.11057019233703613 -1.15504276752471924
-0.297790706157684326 2.02426409721374512 -1.24646592140197754
-0.161449074745178223 4.22684097290039062 -0.914399504661560059
-0.0630918741226196289 4.51897525787353516 -0.442284762859344482
0.833334147930145264 2.18898105621337891 -1.14481639862060547
1.16479611396789551 4.04869270324707031 -0.592032432556152344
-0.796554327011108398 4.66278648376464844 -0.50974661111831665
0.134516805410385132 2.76849484443664551 -1.19652867317199707
-1.15635108947753906 4.43474578857421875 -0.368856519460678101
-1.01105606555938721 3.71479630470275879 -1.04421329498291016
0.683561980724334717 2.25311160087585449 -1.06864261627197266
1.10378754138946533 2.72846412658691406 -1.07736825942993164
0.522663772106170654 4.05281257629394531 -0.900086164474487305
-1.16767656803131104 4.07477092742919922 -0.885680973529815674
-0.0761437714099884033 4.05566167831420898 -0.951946139335632324
0.737611889839172363 3.75959944725036621 -0.815484225749969482
1.11421680450439453 2.61116290092468262 -1.08424031734466553
-0.353922754526138306 2.04666662216186523 -1.21811532974243164
0.251459032297134399 3.898406982421875 -0.689387500286102295
-0.152950912714004517 4.18405437469482422 -0.649079680442810059
0.286997437477111816 3.03841042518615723 -1.16652202606201172
1.12420415878295898 2.66063308715820312 -1.05019021034240723
-1.33980047702789307 3.0383908748626709 -1.10151088237762451
0.160110265016555786 3.87739396095275879 -0.736953377723693848
-1.23984408378601074 3.9988868236541748 -0.404817461967468262
0.174749374389648438 1.3548043966293335 -1.1266484260559082
0.638060271739959717 4.59352874755859375 -0.520338773727416992
1.38861691951751709 3.65799212455749512 -0.461897015571594238
0.386366367340087891 4.17942285537719727 -0.788849949836730957
-1.03001415729522705 3.89634823799133301 -1.1566319465637207
-0.429446697235107422 2.02093601226806641 -1.23830270767211914
0.16610187292098999 2.93009591102600098 -1.16004538536071777
1.09714484214782715 3.41030359268188477 -1.13211739063262939
0.621498465538024902 4.11247730255126953 -1.05369913578033447
0.687550008296966553 2.21081757545471191 -1.08576679229736328
0.166594654321670532 1.56366431713104248 -1.16759860515594482
0.847779929637908936 3.72959446907043457 -0.990672647953033447
-1.21454179286956787 3.79457306861877441 -1.16562378406524658
1.10772013664245605 4.40365219116210938 -0.843719959259033203
-1.34059584140777588 3.67806816101074219 -0.936599612236022949
-0.796971738338470459 4.13826751708984375 -0.839986622333526611
0.0957737788558006287 2.52122044563293457 -1.19223511219024658
-1.27444911003112793 4.35697174072265625 -0.798808455467224121
-0.864889383316040039 4.29215526580810547 -0.596506297588348389
0.838621020317077637 4.39062404632568359 -0.594122648239135742
-0.921679794788360596 4.25087213516235352 -0.700597941875457764
1.11782419681549072 4.34090089797973633 -0.160838007926940918
1.06278371810913086 2.63096284866333008 -1.09942567348480225
0.285849153995513916 4.409454345703125 -0.486814260482788086
0.306894302368164062 3.07542753219604492 -1.09843456745147705
-0.329425513744354248 3.93080544471740723 -1.13725602626800537
-0.3059559166431427 2.43833017349243164 -1.14695882797241211
0.426104545593261719 4.30024528503417969 -0.681809186935424805
-0.859322488307952881 2.21012020111083984 -1.14216601848602295
0.7570992112159729 3.54846572875976562 -1.09565925598144531
0.248876780271530151 1.43346953392028809 -1.08546698093414307
0.475002586841583252 3.34697675704956055 -1.10184240341186523
-0.0738023668527603149 2.28027653694152832 -1.20706593990325928
0.460180521011352539 4.41789579391479492 -0.449266016483306885
-0.278189808130264282 3.88887548446655273 -1.14889419078826904
0.188374459743499756 4.04604005813598633 -0.69934767484664917
-0.259181350469589233 2.00442409515380859 -1.22683155536651611
0.423480063676834106 2.7353968620300293 -1.1095806360244751
-0.152646109461784363 4.56276750564575195 -0.508567571640014648
0.666764736175537109 3.68736147880554199 -0.790493190288543701
0.00947990268468856812 2.48652744293212891 -1.1798785924911499
-0.0888971984386444092 2.80886125564575195 -1.19917929172515869
-0.824522852897644043 4.55726146697998047 -0.549146711826324463
-0.126252397894859314 4.03829860687255859 -0.807757139205932617
0.73600924015045166 4.50900173187255859 -0.531478404998779297
0.956685423851013184 3.85293054580688477 -0.503323018550872803
-1.0919950008392334 4.61897134780883789 -0.538199245929718018
0.0392999313771724701 2.84160041809082031 -1.22013270854949951
0.6595345139503479 4.13883209228515625 -0.470573961734771729
-1.33594787120819092 4.47662210464477539 -0.751789212226867676
-1.06204116344451904 2.49188828468322754 -1.08449876308441162
0.538457810878753662 4.02378273010253906 -1.04941534996032715
1.3857123851776123 4.26573801040649414 -0.967196404933929443
